# Blender 4.5.3 LTS
# www.blender.org
mtllib testroom.mtl
o Плоскость
v 0.000000 1.000000 1.000000
v -0.000000 -1.000000 1.000000
v 0.000000 1.000000 -1.000000
v -0.000000 -1.000000 -1.000000
v 0.000000 1.000000 3.000000
v -0.000000 -1.000000 3.000000
v 0.000000 1.000000 -3.000000
v -0.000000 -1.000000 -3.000000
v 0.000000 3.000000 1.000000
v 0.000000 3.000000 -1.000000
v 0.000000 3.000000 3.000000
v 0.000000 3.000000 -3.000000
v 0.000000 1.000000 0.500000
v 0.000000 1.000000 -0.500000
v -0.000000 -1.000000 0.500000
v -0.000000 -1.000000 -0.500000
v -1.000000 1.000000 0.500000
v -1.000000 1.000000 -0.500000
v -1.000000 -1.000000 0.500000
v -1.000000 -1.000000 -0.500000
v 0.000000 1.000000 0.500000
v 0.000000 1.000000 -0.500000
v -0.000000 -1.000000 0.500000
v -0.000000 -1.000000 -0.500000
v 2.000000 -1.000000 1.000000
v 2.000000 -1.000000 3.000000
v -0.000000 -1.000000 -1.000000
v 2.000000 -1.000000 -1.000000
v -0.000000 -1.000000 -3.000000
v 2.000000 -1.000000 -3.000000
v 0.000000 1.000000 -3.000000
v -0.000000 -1.000000 -3.000000
vn 1.0000 -0.0000 -0.0000
vn -0.0000 -0.0000 -1.0000
vn -0.0000 -1.0000 -0.0000
vn -0.0000 1.0000 -0.0000
vt 1.000000 0.000000
vt 0.000000 0.000000
vt 0.000000 1.000000
vt 1.000000 1.000000
vt 0.000000 0.250000
vt 0.000000 0.750000
vt 1.000000 0.750000
vt 1.000000 0.250000
s 0
f 2/1/1 23/2/1 21/2/1 1/2/1
f 2/1/1 1/2/1 5/2/1 6/1/1
f 3/3/1 4/4/1 8/4/1 7/3/1
f 3/3/1 7/3/1 12/3/1 10/3/1
f 5/2/1 1/2/1 9/2/1 11/2/1
f 1/2/1 13/5/1 14/6/1 3/3/1 10/3/1 9/2/1
f 13/2/2 15/2/2 19/2/2 17/2/2
f 14/2/2 16/2/2 20/2/2 18/2/2
f 14/6/3 13/5/3 17/5/3 18/6/3
f 16/7/3 15/8/3 19/8/3 20/7/3
f 24/2/1 4/4/1 3/3/1 22/2/1
f 2/1/4 6/1/4 26/1/4 25/1/4
f 2/1/4 25/1/4 28/1/4 27/1/4
f 27/1/4 28/1/4 30/1/4 29/1/4
f 7/3/1 8/4/1 32/4/1 31/3/1
l 22 21
l 23 24
